<?xml version="1.0" encoding="utf-8"?>
<!-- Generator: Adobe Illustrator 26.3.1, SVG Export Plug-In . SVG Version: 6.00 Build 0)  -->
<svg version="1.1" id="Ebene_2" xmlns="http://www.w3.org/2000/svg" xmlns:xlink="http://www.w3.org/1999/xlink" x="0px" y="0px"
	 viewBox="0 0 14.46 14.46" style="enable-background:new 0 0 14.46 14.46;" xml:space="preserve">
<style type="text/css">
	.st0{fill:none;stroke:#000000;stroke-width:0.5;stroke-linejoin:round;stroke-miterlimit:10;}
</style>
<path class="st0" d="M7.34,0.39c-1.59,0.72-2.16,2.35-1.69,3.3c0.44,0.89,1.7,1,1.81,1c0.16-0.03,1.22-0.2,1.6-1.01
	C9.5,2.74,8.92,1.16,7.34,0.39z"/>
<path class="st0" d="M6.87,0.65c0,0-1.37,2.78,0.18,3.98"/>
<path class="st0" d="M7.8,0.65c0,0,1.3,2.44,0,3.97"/>
<path class="st0" d="M4.15,4.81c-0.12-1.08-0.62-1.8-1.13-1.83C2.74,2.96,2.3,3.16,2.23,3.54C2.19,3.79,2.33,4.07,2.58,4.26
	c0.1,0.07,0.21,0.14,0.34,0.2C3.38,4.7,3.83,4.78,4.15,4.81z"/>
<path class="st0" d="M4.13,6.93C3.95,7.1,3.22,7.8,3.27,8.6C3.28,8.9,3.4,9.05,3.44,9.09C3.65,9.34,4.1,9.47,4.41,9.26
	C4.65,9.11,4.78,8.8,4.75,8.47c-0.01-0.12-0.03-0.26-0.07-0.4C4.57,7.57,4.33,7.19,4.13,6.93z"/>
<path class="st0" d="M2.74,6.73C2.3,5.97,1.72,5.59,1.35,5.72C1.14,5.8,0.89,6.08,0.96,6.38c0.05,0.2,0.24,0.37,0.48,0.43
	c0.09,0.02,0.2,0.04,0.31,0.05C2.16,6.89,2.5,6.81,2.74,6.73z"/>
<path class="st0" d="M7.55,7.93c0.26,0.84,0.74,1.34,1.13,1.29c0.22-0.03,0.53-0.25,0.52-0.56c0-0.21-0.15-0.41-0.38-0.53
	C8.74,8.09,8.65,8.05,8.54,8.02C8.15,7.9,7.81,7.9,7.55,7.93z"/>
<path class="st0" d="M9.38,12.2c0.09,0.81-0.78,1.99-1.99,1.99c-0.8,0-1.46-0.54-1.76-1.13c-0.15-0.29-0.2-0.56-0.22-0.74
	c0.01-0.18,0.04-0.41,0.13-0.67c0.15-0.43,0.4-0.72,0.56-0.87c0.17,0.13,0.37,0.3,0.56,0.51c0.35,0.39,0.57,0.78,0.7,1.08
	c0.09-0.16,0.18-0.32,0.29-0.48c0.27-0.43,0.56-0.8,0.84-1.11C8.48,10.77,9.26,11.17,9.38,12.2z"/>
<path class="st0" d="M6.45,11.07c0,0,0.43-1.12,0.9-1.37c0,0,0.7,0.51,0.89,1.37"/>
<path class="st0" d="M11.41,1.48c-1.18,1.73-1.3,3.48-0.54,4.22c0.15,0.15,0.47,0.38,1.09,0.42c0,0,0.93,0.06,1.38-0.54
	c0.23-0.31,0.23-0.67,0.23-0.88c0-0.31-0.07-0.74-0.51-1.45C12.78,2.8,12.27,2.13,11.41,1.48z"/>
<path class="st0" d="M12.7,10.26c-0.24,0.14-0.5,0.27-0.78,0.38c-0.35,0.13-0.48,0.12-0.71,0.25c-0.09,0.05-0.43,0.25-0.6,0.62
	c-0.2,0.44-0.1,1.05,0.31,1.44c0.56,0.52,1.43,0.35,1.86-0.01c0.06-0.05,0.24-0.21,0.34-0.48c0.11-0.31,0.04-0.58-0.02-0.8
	c-0.09-0.37-0.22-0.43-0.32-0.81C12.71,10.6,12.7,10.39,12.7,10.26z"/>
<path class="st0" d="M6.52,6.93c0,0,0.44-0.69,1.28,0s1.17-0.45,0.88-0.65c0,0-0.47-0.73-1.64-0.84c-0.18,0-0.46,0.03-0.76,0.18
	C5.71,5.9,5.47,6.42,5.4,6.57C5.38,6.92,5.62,7.21,5.92,7.25C6.15,7.29,6.39,7.16,6.52,6.93z"/>
<path class="st0" d="M11.84,7.74c0,0,0.03,0.82-1.06,0.72S10.07,9.5,10.42,9.5c0,0,0.8,0.34,1.83-0.23c0.14-0.1,0.36-0.28,0.52-0.58
	c0.32-0.56,0.22-1.12,0.19-1.29C12.79,7.1,12.43,7,12.16,7.13C11.95,7.24,11.82,7.48,11.84,7.74z"/>
<path class="st0" d="M3.25,12.09c0.27,0.28,0.68,0.27,0.88,0.08c0.22-0.21,0.21-0.69-0.15-0.95C4,11.18,4.13,10.96,4.05,10.7
	c-0.08-0.25-0.32-0.43-0.61-0.44c-0.01-0.03-0.05-0.3-0.27-0.4C3.04,9.79,2.9,9.81,2.81,9.83C2.77,9.84,2.58,9.86,2.49,9.97
	c-0.26,0.3,0.13,0.98,0.13,0.98c0.19,0.47-0.19,0.12-0.19,0.12s-0.46-0.63-0.84-0.52c-0.13,0.04-0.24,0.21-0.26,0.24
	c-0.05,0.08-0.13,0.19-0.13,0.34c0.01,0.24,0.23,0.39,0.26,0.41c-0.11,0.27-0.04,0.57,0.16,0.74c0.2,0.18,0.46,0.15,0.5,0.14
	c0.09,0.43,0.52,0.64,0.81,0.53c0.26-0.1,0.43-0.47,0.28-0.84L3.25,12.09z"/>
</svg>
