<?xml version="1.0" encoding="utf-8"?>
<!-- Generator: Adobe Illustrator 26.3.1, SVG Export Plug-In . SVG Version: 6.00 Build 0)  -->
<svg version="1.1" id="Ebene_2" xmlns="http://www.w3.org/2000/svg" xmlns:xlink="http://www.w3.org/1999/xlink" x="0px" y="0px"
	 viewBox="0 0 14.46 14.46" style="enable-background:new 0 0 14.46 14.46;" xml:space="preserve">
<style type="text/css">
	.st0{fill:none;stroke:#000000;stroke-width:0.5;stroke-linejoin:round;stroke-miterlimit:10;}
	.st1{fill:none;stroke:#000000;stroke-width:0.5;stroke-linecap:round;stroke-miterlimit:10;}
</style>
<polyline class="st0" points="8.29,8.35 12.87,8.35 12.87,11.96 "/>
<line class="st0" x1="8.9" y1="9.47" x2="12.87" y2="9.47"/>
<line class="st0" x1="8.22" y1="10.83" x2="12.87" y2="10.83"/>
<polyline class="st0" points="9.24,7.42 9.92,5.2 5.93,5.2 6.44,6.96 "/>
<polyline class="st0" points="9.63,6.14 7.92,6.14 7.42,7.23 "/>
<path class="st0" d="M8.84,9.81c0.02-0.08,0.07-0.33-0.04-0.6C8.64,8.86,8.33,8.73,8.27,8.7c-0.1-0.32-0.31-0.82-0.76-1.23
	c-0.75-0.68-1.7-0.68-2.92-0.68c-0.95,0-1.75,0.01-2.49,0.5C1.85,7.45,1.22,7.87,1.11,8.55C1.1,8.62,1.1,8.68,1.09,8.72
	C0.68,9.07,0.52,9.57,0.68,9.95c0.02,0.04,0.17,0.39,0.53,0.45c0.31,0.05,0.64-0.12,0.81-0.45c0.1,0.28,0.35,0.47,0.63,0.49
	c0.32,0.02,0.63-0.18,0.75-0.51c0.14,0.33,0.43,0.53,0.73,0.51c0.35-0.02,0.64-0.35,0.61-0.48c0,0,0-0.01,0-0.02
	c0.04-0.03,0.33,0.48,0.66,0.49c0.35,0,0.69-0.57,0.69-0.57l0,0c0,0,0.22,0.49,0.56,0.58c0.21,0.05,0.39-0.05,0.44-0.08
	c0.26-0.15,0.32-0.43,0.33-0.47c0.08,0.33,0.38,0.56,0.71,0.55C8.49,10.44,8.79,10.17,8.84,9.81z"/>
<path class="st0" d="M1.21,10.4c0.11,0.52,0.22,1.04,0.33,1.56c0.18,0,0.35,0,0.53,0c1.84,0,3.69,0,5.53,0h0.32h5.83V7.42H7.61"/>
<line class="st0" x1="8.22" y1="10.44" x2="7.92" y2="11.96"/>
<line class="st1" x1="4.05" y1="7.67" x2="3.42" y2="7.89"/>
<line class="st1" x1="6.08" y1="7.88" x2="5.45" y2="7.68"/>
<line class="st1" x1="4.75" y1="8.02" x2="4.73" y2="8.69"/>
<line class="st1" x1="6.31" y1="6.06" x2="6.83" y2="6.06"/>
<line class="st1" x1="8.77" y1="6.14" x2="8.53" y2="6.79"/>
<path class="st0" d="M6.31,5.2C5.97,4.96,5.83,4.57,5.94,4.26c0.09-0.24,0.3-0.36,0.37-0.39c0.02-0.15,0.07-0.42,0.26-0.69
	c0.3-0.44,0.83-0.7,1.36-0.69c0.53,0.01,0.89,0.3,0.99,0.38c0.46,0.38,0.57,0.89,0.6,1.03c0.03,0.01,0.37,0.15,0.44,0.48
	C10.03,4.7,9.81,5.07,9.42,5.2C8.38,5.2,7.35,5.2,6.31,5.2z"/>
<path class="st0" d="M2.67,3.72"/>
<path class="st1" d="M7.92,3.42c0,0,0.64,0.05,0.73,0.66"/>
<circle class="st1" cx="11.97" cy="6.79" r="0.61"/>
<path class="st1" d="M11.36,5.2c0,0,0.76,0.17,0.61,0.99"/>
</svg>
