<?xml version="1.0" encoding="utf-8"?>
<!-- Generator: Adobe Illustrator 26.3.1, SVG Export Plug-In . SVG Version: 6.00 Build 0)  -->
<svg version="1.1" id="Ebene_2" xmlns="http://www.w3.org/2000/svg" xmlns:xlink="http://www.w3.org/1999/xlink" x="0px" y="0px"
	 viewBox="0 0 14.46 14.46" style="enable-background:new 0 0 14.46 14.46;" xml:space="preserve">
<style type="text/css">
	.st0{fill:none;stroke:#000000;stroke-width:0.75;stroke-linecap:round;stroke-miterlimit:10;}
	.st1{fill:none;stroke:#000000;stroke-width:0.75;stroke-miterlimit:10;}
	.st2{fill:none;stroke:#000000;stroke-miterlimit:10;}
</style>
<line class="st0" x1="7.23" y1="4.37" x2="7.23" y2="12.81"/>
<polyline class="st0" points="6.13,5.09 7.23,6.23 8.32,5.09 "/>
<polyline class="st0" points="6.13,7.18 7.22,8.25 8.32,7.18 "/>
<path class="st1" d="M7.22,2.22c0,0,0.47-0.02,0.73,0.47c0.26,0.48,0.57,0.5,0.79,0.35C8.96,2.89,9.7,2.99,9.63,3.63
	S9.24,4.72,9.45,4.96c0.21,0.24,0.56,0.13,0.56,0.13s0.76-0.13,0.49,0.83c0,0-0.43,0.87-1.12,1.16C9.19,7.16,9.11,7.25,9.1,7.33
	C9.09,7.48,9.3,7.65,9.5,7.72c0.07,0.02,0.13,0.03,0.17,0.03c0.06,0.02,0.19,0.07,0.26,0.19C10.05,8.12,10,8.4,9.78,8.61
	C9.3,8.98,8.97,9.09,8.74,9.12C8.66,9.13,8.46,9.15,8.39,9.28C8.34,9.35,8.36,9.41,8.32,9.6C8.3,9.69,8.27,9.76,8.26,9.81
	c-0.03,0.09-0.12,0.27-0.31,0.42c-0.3,0.23-0.64,0.2-0.72,0.2"/>
<path class="st1" d="M7.23,2.22c0,0-0.47-0.02-0.73,0.47c-0.26,0.48-0.57,0.5-0.79,0.35S4.76,2.99,4.83,3.63
	c0.07,0.64,0.39,1.09,0.18,1.33C4.79,5.2,4.45,5.09,4.45,5.09S3.69,4.96,3.96,5.93c0,0,0.43,0.87,1.12,1.16
	c0.2,0.08,0.27,0.17,0.28,0.25c0.01,0.15-0.2,0.32-0.39,0.38C4.89,7.74,4.83,7.74,4.78,7.75C4.72,7.77,4.6,7.82,4.52,7.93
	C4.41,8.12,4.46,8.4,4.67,8.61c0.48,0.37,0.82,0.48,1.04,0.51c0.08,0.01,0.28,0.03,0.36,0.16C6.11,9.35,6.1,9.41,6.14,9.6
	C6.16,9.69,6.18,9.76,6.2,9.81c0.03,0.09,0.12,0.27,0.31,0.42c0.3,0.23,0.64,0.2,0.72,0.2"/>
<path class="st2" d="M13.62,7.35c0,3.46-2.86,6.27-6.38,6.27s-6.38-2.81-6.38-6.27c0-1.86,0.83-3.54,2.14-4.68
	C4.11,1.68,5.6,1.08,7.23,1.08C10.76,1.08,13.62,3.89,13.62,7.35z"/>
<line class="st2" x1="3.07" y1="2.6" x2="11.74" y2="11.8"/>
</svg>
