<?xml version="1.0" encoding="utf-8"?>
<!-- Generator: Adobe Illustrator 26.3.1, SVG Export Plug-In . SVG Version: 6.00 Build 0)  -->
<svg version="1.1" id="Ebene_2" xmlns="http://www.w3.org/2000/svg" xmlns:xlink="http://www.w3.org/1999/xlink" x="0px" y="0px"
	 viewBox="0 0 14.46 14.46" style="enable-background:new 0 0 14.46 14.46;" xml:space="preserve">
<style type="text/css">
	.st0{fill:none;stroke:#000000;stroke-width:0.75;stroke-linecap:round;stroke-miterlimit:10;}
	.st1{fill:none;stroke:#000000;stroke-width:0.75;stroke-miterlimit:10;}
</style>
<line class="st0" x1="7.29" y1="3.28" x2="7.29" y2="13.88"/>
<polyline class="st0" points="5.91,4.19 7.29,5.62 8.65,4.19 "/>
<polyline class="st0" points="5.91,6.81 7.28,8.16 8.65,6.81 "/>
<path class="st1" d="M7.28,0.58c0,0,0.59-0.02,0.92,0.58c0.33,0.6,0.72,0.63,0.99,0.44c0.27-0.18,1.2-0.06,1.11,0.75
	c-0.08,0.81-0.49,1.37-0.23,1.67c0.27,0.3,0.7,0.16,0.7,0.16s0.95-0.16,0.62,1.05c0,0-0.54,1.09-1.4,1.45C9.75,6.79,9.65,6.9,9.64,7
	c-0.02,0.19,0.25,0.4,0.49,0.48c0.08,0.03,0.16,0.04,0.22,0.04c0.08,0.02,0.23,0.09,0.33,0.24c0.14,0.23,0.08,0.59-0.19,0.85
	C9.89,9.07,9.47,9.21,9.19,9.25c-0.1,0.01-0.35,0.04-0.45,0.2c-0.05,0.09-0.03,0.16-0.09,0.4c-0.02,0.11-0.05,0.2-0.07,0.26
	c-0.04,0.11-0.15,0.34-0.39,0.52c-0.38,0.29-0.8,0.26-0.9,0.25"/>
<path class="st1" d="M7.29,0.58c0,0-0.59-0.02-0.92,0.58c-0.33,0.6-0.72,0.63-0.99,0.44c-0.27-0.18-1.2-0.06-1.11,0.75
	S4.76,3.73,4.5,4.03c-0.27,0.3-0.7,0.16-0.7,0.16S2.85,4.03,3.18,5.24c0,0,0.54,1.09,1.4,1.45C4.82,6.79,4.92,6.9,4.93,7
	c0.02,0.19-0.25,0.4-0.49,0.48C4.35,7.51,4.27,7.52,4.22,7.52C4.14,7.55,3.98,7.61,3.89,7.76C3.74,7.99,3.81,8.35,4.07,8.61
	C4.68,9.07,5.1,9.21,5.38,9.25c0.1,0.01,0.35,0.04,0.45,0.2c0.05,0.09,0.03,0.16,0.09,0.4c0.02,0.11,0.05,0.2,0.07,0.26
	c0.04,0.11,0.15,0.34,0.39,0.52c0.38,0.29,0.8,0.26,0.9,0.25"/>
</svg>
