<?xml version="1.0" encoding="utf-8"?>
<!-- Generator: Adobe Illustrator 26.3.1, SVG Export Plug-In . SVG Version: 6.00 Build 0)  -->
<svg version="1.1" id="Ebene_2" xmlns="http://www.w3.org/2000/svg" xmlns:xlink="http://www.w3.org/1999/xlink" x="0px" y="0px"
	 viewBox="0 0 14.46 14.46" style="enable-background:new 0 0 14.46 14.46;" xml:space="preserve">
<style type="text/css">
	.st0{fill:none;stroke:#000000;stroke-width:0.75;stroke-linejoin:round;stroke-miterlimit:10;}
	.st1{fill:none;stroke:#000000;stroke-width:0.75;stroke-linecap:round;stroke-linejoin:round;stroke-miterlimit:10;}
</style>
<path class="st0" d="M2.67,2.84c0,0,0.38-2.49,3.02-1.36c0,0,1.45-1.96,2.96,0.02c0,0,2.51-1.08,3.01,1.35c0,0,1.53-0.2,2.13,1.21
	s-0.68,2.38-0.68,2.38s0.56,1.48-0.6,2.11c-0.59,0.32-1.18,0.22-1.22,0.21c-0.57-0.15-1.01-0.63-1.16-1.24
	C10.06,7.54,9.9,7.6,9.71,7.57c-0.37-0.06-0.55-0.4-0.57-0.43c0,0-0.61,1-1.91,0.91c-1.06-0.07-1.75-0.7-1.88-0.83
	c-0.04-0.04-0.08-0.08-0.1-0.1C5.22,7.2,5.15,7.34,5.02,7.44C4.69,7.69,4.26,7.52,4.23,7.51C4.21,7.6,4.04,8.27,3.37,8.59
	C2.81,8.86,2.29,8.71,2.17,8.67c0,0-1.51-0.43-0.81-2.23C1.27,6.39,0.53,5.93,0.42,5C0.31,4.08,0.89,3.46,0.96,3.39
	c0.13-0.12,0.36-0.32,0.71-0.45C2.11,2.78,2.49,2.81,2.67,2.84z"/>
<path class="st1" d="M5.83,5.96C5.37,5.98,4.96,5.73,4.78,5.34C4.57,4.87,4.81,4.43,4.84,4.38c0.19-0.33,0.55-0.53,0.93-0.53
	c0.59,0.01,0.89,0.49,0.91,0.52C7.08,4,7.67,3.93,8.12,4.19C8.5,4.41,8.72,4.84,8.7,5.3"/>
<path class="st1" d="M4.48,7.57c0,0,1.53,4.16,1.27,6.25H8.6c0,0,0.26-4.86,1.35-6.25"/>
<path class="st1" d="M6.38,7.87C6.44,8.34,6.5,8.81,6.56,9.28c0,0.37,0.32,0.66,0.66,0.63c0.31-0.02,0.56-0.3,0.56-0.63
	c0.06-0.44,0.12-0.87,0.18-1.31"/>
</svg>
