<?xml version="1.0" encoding="utf-8"?>
<!-- Generator: Adobe Illustrator 26.3.1, SVG Export Plug-In . SVG Version: 6.00 Build 0)  -->
<svg version="1.1" id="Ebene_2" xmlns="http://www.w3.org/2000/svg" xmlns:xlink="http://www.w3.org/1999/xlink" x="0px" y="0px"
	 viewBox="0 0 14.46 14.46" style="enable-background:new 0 0 14.46 14.46;" xml:space="preserve">
<style type="text/css">
	.st0{fill:none;stroke:#000000;stroke-width:0.75;stroke-linejoin:round;stroke-miterlimit:10;}
	.st1{fill:none;stroke:#000000;stroke-width:0.5;stroke-linejoin:round;stroke-miterlimit:10;}
</style>
<path class="st0" d="M11.41,8.69c0,0.93,1.13,1,1.13,1v2.49H4.94c0,0-0.12-0.55-0.61-0.55s-0.54,0.55-0.54,0.55H2.02V8.77
	c0,0,0.71-0.08,0.72-0.78c0.02-0.7-0.72-0.76-0.72-0.76V4.91C3.66,2.22,6.8,2.29,6.8,2.29L12.47,5l0.07,2.51
	C12.54,7.51,11.41,7.56,11.41,8.69z"/>
<line class="st0" x1="2.02" y1="4.91" x2="12.47" y2="5"/>
<circle class="st1" cx="9.57" cy="6.83" r="0.98"/>
<circle class="st1" cx="6.72" cy="9.94" r="0.92"/>
<circle class="st1" cx="9.86" cy="9.69" r="0.54"/>
</svg>
