<?xml version="1.0" encoding="utf-8"?>
<!-- Generator: Adobe Illustrator 26.3.1, SVG Export Plug-In . SVG Version: 6.00 Build 0)  -->
<svg version="1.1" id="Ebene_2" xmlns="http://www.w3.org/2000/svg" xmlns:xlink="http://www.w3.org/1999/xlink" x="0px" y="0px"
	 viewBox="0 0 14.46 14.46" style="enable-background:new 0 0 14.46 14.46;" xml:space="preserve">
<style type="text/css">
	.st0{fill:none;stroke:#000000;stroke-width:0.75;stroke-linejoin:round;stroke-miterlimit:10;}
	.st1{fill:none;stroke:#000000;stroke-width:0.5;stroke-linejoin:round;stroke-miterlimit:10;}
</style>
<path class="st0" d="M10.48,10.89c0,0.75,0.92,0.81,0.92,0.81v2.01H5.22c0,0-0.1-0.44-0.49-0.44c-0.4,0-0.44,0.44-0.44,0.44H2.86
	v-2.75c0,0,0.57-0.07,0.59-0.63c0.01-0.56-0.59-0.61-0.59-0.61V7.84c1.33-2.18,3.88-2.12,3.88-2.12l4.61,2.19l0.05,2.03
	C11.39,9.94,10.48,9.98,10.48,10.89z"/>
<line class="st0" x1="2.86" y1="7.84" x2="11.34" y2="7.91"/>
<ellipse class="st1" cx="8.98" cy="9.39" rx="0.8" ry="0.79"/>
<ellipse class="st1" cx="6.67" cy="11.91" rx="0.75" ry="0.75"/>
<circle class="st1" cx="9.22" cy="11.71" r="0.44"/>
<path class="st1" d="M2.13,1.9c0,0,0.89,1.17,0.4,1.78c0,0-1.08,1.08,0.14,1.71c0,0,0.82,0.29,1.04,0.25
	C3.6,5.52,3.42,5.27,3.35,4.92c-0.11-0.54,0.12-0.96,0.2-1.1C3.6,3.75,3.87,3.37,3.74,2.91C3.66,2.61,3.46,2.43,3.37,2.35
	C3.37,2.35,2.99,1.83,2.13,1.9z"/>
<path class="st1" d="M5.54,0.72c0,0,0.89,1.17,0.4,1.78c0,0-1.08,1.08,0.14,1.71c0,0,0.82,0.29,1.04,0.25
	c-0.11-0.13-0.3-0.37-0.37-0.72c-0.11-0.54,0.12-0.96,0.2-1.1C7,2.56,7.28,2.19,7.15,1.72C7.07,1.43,6.87,1.24,6.77,1.16
	C6.77,1.16,6.4,0.65,5.54,0.72z"/>
<path class="st1" d="M9.1,1.98c0,0,0.89,1.17,0.4,1.78c0,0-1.08,1.08,0.14,1.71c0,0,0.82,0.29,1.04,0.25
	c-0.11-0.13-0.3-0.37-0.37-0.72c-0.11-0.54,0.12-0.96,0.2-1.1c0.05-0.07,0.32-0.44,0.19-0.91c-0.08-0.29-0.28-0.48-0.37-0.56
	C10.34,2.42,9.96,1.91,9.1,1.98z"/>
</svg>
