<?xml version="1.0" encoding="utf-8"?>
<!-- Generator: Adobe Illustrator 26.3.1, SVG Export Plug-In . SVG Version: 6.00 Build 0)  -->
<svg version="1.1" id="Ebene_2" xmlns="http://www.w3.org/2000/svg" xmlns:xlink="http://www.w3.org/1999/xlink" x="0px" y="0px"
	 viewBox="0 0 14.46 14.46" style="enable-background:new 0 0 14.46 14.46;" xml:space="preserve">
<style type="text/css">
	.st0{fill:none;stroke:#000000;stroke-width:0.75;stroke-linejoin:round;stroke-miterlimit:10;}
	.st1{fill:none;stroke:#000000;stroke-width:0.75;stroke-linecap:round;stroke-miterlimit:10;}
	.st2{fill:none;stroke:#000000;stroke-width:0.75;stroke-linecap:round;stroke-linejoin:round;stroke-miterlimit:10;}
</style>
<path class="st0" d="M2.47,3.28c2.34,0.02,4.68,0.03,7.02,0.05c0.28-0.02,2.11-0.11,3.34,1.15c0.74,0.75,0.9,1.62,0.97,1.99
	c0.07,0.4,0.24,1.39-0.33,2.39c-0.81,1.41-2.48,1.72-2.73,1.77c-1.53,0.05-3.05,0.11-4.58,0.16c-0.32,0.07-0.64-0.03-0.8-0.25
	c-0.12-0.16-0.11-0.33-0.11-0.41C5.23,9.98,5.21,9.68,5.38,9.41C5.42,9.35,5.47,9.27,5.56,9.2c0.23-0.17,0.51-0.16,0.6-0.15
	l3.55-0.11c0,0,1.13,0.02,1.13-0.96S9.76,7,9.46,7.03c-0.29,0.03-2.76,0-2.76,0S3,7.18,2.47,3.28z"/>
<path class="st1" d="M1.24,1.22c0,0-0.37,2.04,1.22,2.05"/>
<path class="st1" d="M0.58,3.28c0,0,0.1,1.6,2.13,1.04"/>
<path class="st1" d="M11.68,3.68c0,0-0.55,2.57-2,3.34"/>
<path class="st1" d="M10.83,7.98c0,0,2.56,0.11,3.03-0.94"/>
<path class="st1" d="M10.09,8.93c0,0,0.28,1.37,1.19,1.52"/>
<path class="st1" d="M7.58,9c0,0-0.37,0.96,0.2,1.72"/>
<path class="st1" d="M6.7,7.03c0,0,1.03-0.79,0.92-1.36"/>
<path class="st2" d="M5.56,9.2c0,0-0.53-0.97-2.27-0.93c0,0-0.15,1.66,1.94,1.71"/>
<path class="st2" d="M5.52,10.98c0,0-0.42,1.02-2.16,1.13c0,0-0.33-1.64,1.75-1.88"/>
<ellipse class="st2" cx="4.82" cy="4.51" rx="0.23" ry="0.21"/>
</svg>
