<?xml version="1.0" encoding="utf-8"?>
<!-- Generator: Adobe Illustrator 26.3.1, SVG Export Plug-In . SVG Version: 6.00 Build 0)  -->
<svg version="1.1" id="Ebene_2" xmlns="http://www.w3.org/2000/svg" xmlns:xlink="http://www.w3.org/1999/xlink" x="0px" y="0px"
	 viewBox="0 0 14.46 14.46" style="enable-background:new 0 0 14.46 14.46;" xml:space="preserve">
<style type="text/css">
	.st0{fill:none;stroke:#000000;stroke-width:0.5;stroke-miterlimit:10;}
	.st1{fill:#FFFFFF;stroke:#000000;stroke-width:0.5;stroke-miterlimit:10;}
</style>
<ellipse class="st0" cx="7.26" cy="4.32" rx="3.76" ry="3.65"/>
<circle class="st1" cx="5.2" cy="2.61" r="0.69"/>
<circle class="st1" cx="9.89" cy="3.72" r="0.69"/>
<circle class="st1" cx="6.29" cy="6.72" r="0.69"/>
<path class="st0" d="M6.87,8.19c0,0.25,0,0.5,0,0.76c0.14,0,0.28,0,0.42,0c0.12,0,0.24,0,0.36,0c0-0.25,0-0.5,0-0.76H6.87z"/>
<path class="st0" d="M7.26,13.88h0.78c0.07-0.01,0.17-0.04,0.25-0.12c0.11-0.1,0.13-0.24,0.14-0.32c0.07-0.62,0-3.44,0-3.44
	S8.33,9.09,7.26,9.13s-1.12,0.89-1.12,0.89v3.16c0,0-0.05,0.69,0.16,0.69C6.5,13.88,7.26,13.88,7.26,13.88z"/>
<path class="st1" d="M3.92,5.13c0,0,0.5-0.07,0.55-0.55c0.05-0.48,0.78-0.18,0.64,0c0.02,0.06,0.04,0.13,0.05,0.21
	c0.03,0.33-0.2,0.58-0.26,0.64C4.64,5.91,4.19,6.05,4,5.92C3.84,5.81,3.79,5.47,3.92,5.13z"/>
<path class="st1" d="M8.5,1.04c0,0-0.31,0.4-0.75,0.2c-0.02-0.01-0.1-0.03-0.2-0.02c-0.03,0-0.22,0.02-0.29,0.15
	c-0.06,0.12,0,0.31,0.17,0.43c0.1,0.06,0.26,0.15,0.47,0.19C8.1,2.02,8.28,2.01,8.39,1.99c0.5-0.09,0.75-0.44,0.7-0.65
	C9.05,1.17,8.8,1.05,8.5,1.04z"/>
<path class="st1" d="M7.83,4.81c0,0,0.64-0.34-0.32-1.28S6.07,3.75,6.57,3.93c0.28,0.1,0.55,0.13,0.69,0.38
	C7.31,4.41,7.3,4.51,7.29,4.58c0,0.01,0.03,0.18,0.18,0.26C7.58,4.9,7.72,4.88,7.83,4.81z"/>
<path class="st1" d="M7.97,6.69c0,0,0.34,0.64,1.28-0.32c0.94-0.96-0.23-1.44-0.41-0.94c-0.1,0.26-0.12,0.49-0.38,0.69
	C8.34,6.21,8.21,6.23,8.13,6.24C8.1,6.24,8,6.25,7.94,6.33C7.87,6.43,7.88,6.58,7.97,6.69z"/>
</svg>
