<?xml version="1.0" encoding="utf-8"?>
<!-- Generator: Adobe Illustrator 26.3.1, SVG Export Plug-In . SVG Version: 6.00 Build 0)  -->
<svg version="1.1" id="Ebene_2" xmlns="http://www.w3.org/2000/svg" xmlns:xlink="http://www.w3.org/1999/xlink" x="0px" y="0px"
	 viewBox="0 0 14.46 14.46" style="enable-background:new 0 0 14.46 14.46;" xml:space="preserve">
<style type="text/css">
	.st0{fill:none;stroke:#000000;stroke-width:0.5;stroke-miterlimit:10;}
</style>
<path class="st0" d="M4.45,5.55C3.3,5.12,2.59,4.46,2.64,3.89c0.05-0.51,0.69-0.85,1.04-1.01c2.34-1.05,5.5,0.06,5.5,0.06
	c0.37,0.16,1.59,0.66,2.05,1.17c0.23,0.25,0.84,0.92,1.01,1.91c0.06,0.35,0.06,0.71,0.05,0.82c-0.01,0.49-0.08,0.86-0.11,0.97
	c-0.04,0.19-0.1,0.42-0.22,0.71c-0.03,0.07-0.17,0.37-0.44,0.7c-0.55,0.68-1.21,0.97-1.32,1.01c-0.7,0.3-1.31,0.27-1.61,0.23
	c-0.23-0.02-0.62-0.08-0.99-0.35C6.52,9.3,6.99,7.6,5.91,6.4C5.67,6.13,5.23,5.76,4.45,5.55z"/>
<path class="st0" d="M1.92,3.31c0,0,0.79-1.83,4.4-1.73s5.1,1.31,5.57,1.91c0.32,0.41,1.17,1.27,1.31,2.61
	c0.07,0.65-0.05,1.18-0.14,1.6c-0.12,0.57-0.34,1.44-1.02,2.25c-0.29,0.35-0.66,0.61-1.21,0.94C9.53,11.66,6.53,12,6.05,8.72
	c0,0-0.46-2.2-2.54-2.61C3.31,6.07,2.84,5.94,2.4,5.52C2.25,5.38,1.72,4.87,1.72,4.11C1.72,3.75,1.84,3.47,1.92,3.31z"/>
<path class="st0" d="M2.12,3.01c0,0-1.27,0.79-0.78,2.43c0,0,0.07,0.22,0.27,0.48c0.34,0.44,0.76,0.61,1.03,0.73
	C3.4,6.97,4.23,7.33,4.81,8.06c0.15,0.19,0.46,0.58,0.6,1.17c0.08,0.32,0.04,0.46,0.13,0.8c0,0,0.14,0.56,0.53,1.09
	c0.49,0.67,1.49,1.17,2.7,1.21c0.35-0.03,1.16-0.14,1.97-0.74c0.78-0.58,1.15-1.3,1.31-1.64"/>
<ellipse class="st0" cx="6.15" cy="4.26" rx="0.8" ry="0.86"/>
<path class="st0" d="M2.64,3.74c0,0,1.9-0.08,2.74,0.27"/>
<path class="st0" d="M6.89,4.6C7.2,4.72,7.55,4.9,7.92,5.13c0.8,0.51,1.35,1.12,1.71,1.59c0.09,0.16,0.22,0.42,0.34,0.75
	c0.08,0.23,0.09,0.29,0.19,0.63c0.13,0.42,0.2,0.63,0.31,0.86c0.12,0.25,0.58,0.96,0.37,0.62l0.12,0.18"/>
<path class="st0" d="M11.56,4.5c0,0-1.93-0.26-3.24,0.89"/>
</svg>
