<?xml version="1.0" encoding="utf-8"?>
<!-- Generator: Adobe Illustrator 26.3.1, SVG Export Plug-In . SVG Version: 6.00 Build 0)  -->
<svg version="1.1" id="Ebene_2" xmlns="http://www.w3.org/2000/svg" xmlns:xlink="http://www.w3.org/1999/xlink" x="0px" y="0px"
	 viewBox="0 0 14.46 14.46" style="enable-background:new 0 0 14.46 14.46;" xml:space="preserve">
<style type="text/css">
	.st0{fill:none;stroke:#000000;stroke-width:0.25;stroke-miterlimit:10;}
	.st1{fill:none;stroke:#000000;stroke-width:0.15;stroke-miterlimit:10;}
</style>
<path class="st0" d="M10.32,2.48c0,0,0.03-0.72,0.46-0.98s0.78-0.22,1.13-0.53c0,0,0.38,0.22,0.48,1.04
	c0.1,0.82-0.48,1.35-0.48,1.35S11.36,3.5,11.2,3.7C11.2,3.7,10.76,2.49,10.32,2.48z"/>
<path class="st0" d="M12.38,3.36c0,0,0.13-0.53,1.05-0.47s0.84-0.22,0.84-0.22s0,1.44-0.54,1.65C13.73,4.32,13.45,3.47,12.38,3.36z"
	/>
<ellipse class="st0" cx="9.6" cy="5.27" rx="1.46" ry="1.32"/>
<path class="st0" d="M11.06,3.65c0.01-0.29-0.1-0.5-0.15-0.6c-0.24-0.44-0.78-0.8-1.39-0.78c-0.09,0-0.78,0.04-1.16,0.6
	C8.15,3.19,8.14,3.51,8.14,3.65c-0.01,0.08,0,0.19,0.03,0.32c0.04,0.17,0.12,0.37,0.3,0.46c0,0,0.35-0.5,1.13-0.49
	c0.78,0.01,1.11,0.46,1.11,0.46C10.78,4.33,11.04,4.06,11.06,3.65z"/>
<path class="st0" d="M10.78,4.35c-0.04,0.23,0.18,0.28,0.25,0.63c0,0,0.01,0.04,0.01,0.51l0,0c0.43,0.48,1.24,0.5,1.24,0.5
	c0.81,0,1.46-0.59,1.46-1.32c0-0.73-0.65-1.32-1.46-1.32C12.1,3.36,11.47,3.4,11.2,3.7c-0.05,0.06-0.15,0.2-0.24,0.32
	C10.85,4.2,10.79,4.29,10.78,4.35z"/>
<path class="st0" d="M2.22,6.23c0,0,0.29-0.53,0.39-0.5"/>
<path class="st0" d="M2.61,5.48c0,0-0.07,1.79,0.18,2.09"/>
<path class="st0" d="M1.59,4.39c0,0,0.62,0.15,0.9-0.27"/>
<path class="st0" d="M3,5.15c0,0-0.53-0.43-0.48-0.65"/>
<path class="st0" d="M2.48,4.01c0,0,0.06,0.73,0.08,0.75"/>
<path class="st0" d="M3.13,3.54c0,0-0.75-0.59-0.82-0.93"/>
<path class="st0" d="M2.9,0.81c0,0-0.15,0.28-0.3,0.68c-0.16,0.42-0.31,0.97-0.3,1.47"/>
<path class="st0" d="M2.12,1.45c0,0,0.46-0.15,0.6-0.27"/>
<path class="st0" d="M4.57,7.58c0,0,0.45,0.13,0.75,0.08c0.3-0.04,1.01,0.2,1.05,0.49c0,0,0,0.26-0.12,0.38c0,0-0.3-0.39-1.07-0.05
	C5.19,8.48,4.66,8.25,4.57,7.58z"/>
<path class="st0" d="M9.62,7.58c0,0-0.45,0.13-0.75,0.08c-0.3-0.04-1.01,0.2-1.05,0.49c0,0,0,0.26,0.12,0.38c0,0,0.3-0.39,1.07-0.05
	C9,8.48,9.53,8.25,9.62,7.58z"/>
<path class="st0" d="M7.72,8.69C7.26,8.08,6.44,8.64,6.44,8.64c-0.29-1.2,0.98-1.46,0.98-1.46S7.28,7.45,7.48,7.61
	c0.2,0.16,0.34,0.63,0.29,1.02L7.72,8.69z"/>
<ellipse class="st1" cx="9.11" cy="5.5" rx="0.11" ry="0.11"/>
<ellipse class="st1" cx="9.6" cy="2.99" rx="0.11" ry="0.11"/>
<ellipse class="st1" cx="12.27" cy="5.08" rx="0.11" ry="0.11"/>
<polygon class="st1" points="9.67,5.67 9.26,5.74 9.06,6.09 8.89,5.74 8.49,5.68 8.8,5.4 8.75,5.01 9.1,5.2 9.48,5.01 9.39,5.4 "/>
<polygon class="st1" points="10.19,3.12 9.78,3.18 9.58,3.53 9.41,3.18 9.01,3.13 9.31,2.85 9.26,2.46 9.62,2.64 9.99,2.45 
	9.91,2.84 "/>
<polygon class="st1" points="12.9,5.32 12.46,5.38 12.25,5.76 12.08,5.39 11.65,5.33 11.97,5.03 11.92,4.62 12.3,4.81 12.7,4.61 
	12.6,5.03 "/>
<ellipse class="st0" cx="7.09" cy="10.62" rx="0.75" ry="0.61"/>
<path class="st0" d="M7.68,10.25c0,0,0.64-0.53,1.26,0c0,0,0.44,0.49-0.18,0.88c-0.62,0.38-1.07-0.14-1.07-0.14
	S7.98,10.64,7.68,10.25z"/>
<path class="st0" d="M6.49,10.24c0,0-0.58-0.48-1.16-0.07c-0.03,0.02-0.06,0.05-0.09,0.07c0,0-0.44,0.49,0.18,0.88
	c0.62,0.38,1.07-0.14,1.07-0.14S6.19,10.63,6.49,10.24z"/>
<path class="st0" d="M5.71,10.01c0,0-0.39-0.83,0.63-0.9c0,0,0.67-0.11,0.75,0.58c0,0,0.04,0.27-0.14,0.32
	c-0.18,0.05-0.36,0.1-0.46,0.23C6.49,10.24,6.19,9.95,5.71,10.01z"/>
<path class="st0" d="M8.49,10.01c0,0,0.39-0.83-0.63-0.9c0,0-0.67-0.11-0.75,0.58c0,0-0.04,0.27,0.14,0.32
	c0.18,0.05,0.36,0.1,0.46,0.23C7.71,10.24,8.01,9.95,8.49,10.01z"/>
<path class="st0" d="M8.47,11.27c0,0,0.39,0.83-0.63,0.9c0,0-0.67,0.11-0.75-0.58c0,0-0.04-0.27,0.14-0.32s0.36-0.1,0.46-0.23
	C7.69,11.04,7.99,11.33,8.47,11.27z"/>
<path class="st0" d="M5.71,11.27c0,0-0.39,0.83,0.63,0.9c0,0,0.67,0.11,0.75-0.58c0,0,0.04-0.27-0.14-0.32s-0.36-0.1-0.46-0.23
	C6.49,11.04,6.19,11.33,5.71,11.27z"/>
<path class="st0" d="M5.32,10.17c0,0-0.3-0.22-0.76-0.15c-0.46,0.07-0.52,0.5-0.52,0.5s-0.07,0.44,0.34,0.62S5.27,11.13,5.26,11
	C5.26,11,4.83,10.61,5.32,10.17z"/>
<path class="st0" d="M8.89,10.2c0,0,0.3-0.22,0.76-0.15c0.46,0.07,0.52,0.5,0.52,0.5s0.07,0.44-0.34,0.62
	c-0.41,0.18-0.89-0.01-0.88-0.14C8.94,11.04,9.38,10.64,8.89,10.2z"/>
<path class="st0" d="M5.76,9.34c0.02-0.02-0.49-0.36-0.91-0.2C4.79,9.16,4.62,9.22,4.51,9.38C4.49,9.41,4.44,9.5,4.42,9.63
	C4.39,9.81,4.45,9.94,4.48,10c0,0,0.56-0.06,0.85,0.17c0,0,0.2-0.17,0.35-0.17C5.68,10,5.52,9.49,5.76,9.34z"/>
<path class="st0" d="M8.49,9.34C8.47,9.32,8.98,8.97,9.4,9.13c0.06,0.02,0.23,0.08,0.34,0.25C9.76,9.41,9.81,9.5,9.83,9.63
	C9.86,9.81,9.8,9.94,9.77,10c0,0-0.56-0.06-0.85,0.17c0,0-0.2-0.17-0.35-0.17C8.57,10,8.72,9.49,8.49,9.34z"/>
<path class="st0" d="M8.49,11.9c-0.02,0.02,0.49,0.36,0.91,0.2c0.06-0.02,0.23-0.08,0.34-0.25c0.02-0.03,0.07-0.12,0.09-0.25
	c0.03-0.18-0.03-0.32-0.06-0.37c0,0-0.56,0.06-0.85-0.17c0,0-0.2,0.17-0.35,0.17C8.57,11.23,8.72,11.74,8.49,11.9z"/>
<path class="st0" d="M5.71,11.9c0.02,0.02-0.49,0.36-0.91,0.2c-0.06-0.02-0.23-0.08-0.34-0.25c-0.02-0.03-0.07-0.12-0.09-0.25
	c-0.03-0.18,0.03-0.32,0.06-0.37c0,0,0.56,0.06,0.85-0.17c0,0,0.2,0.17,0.35,0.17C5.64,11.23,5.48,11.74,5.71,11.9z"/>
<path class="st0" d="M6.34,12.16c0,0,0.03,0.68,0.75,0.71s0.75-0.71,0.75-0.71s-0.62-0.01-0.75-0.41
	C7.09,11.75,6.85,12.2,6.34,12.16z"/>
<path class="st0" d="M7.87,9.12c0,0-0.03-0.68-0.75-0.71S6.38,9.12,6.38,9.12S7,9.12,7.13,9.53C7.13,9.53,7.36,9.08,7.87,9.12z"/>
<path class="st0" d="M4.92,12.13c0,0-0.09,0.69,0.61,0.71c0.06,0,0.2,0.02,0.38-0.03c0.09-0.02,0.2-0.05,0.31-0.13
	c0.11-0.08,0.16-0.18,0.19-0.24c0,0-0.11-0.2-0.07-0.28c0,0-0.44-0.05-0.63-0.27C5.71,11.9,5.26,12.21,4.92,12.13z"/>
<path class="st0" d="M9.3,12.16c0,0,0.05,0.36-0.19,0.56c-0.13,0.12-0.31,0.13-0.43,0.15c-0.04,0-0.16,0.02-0.33-0.02
	C8.25,12.83,8.13,12.8,8,12.71c-0.1-0.08-0.16-0.18-0.19-0.24c0,0,0.11-0.2,0.07-0.28c0,0,0.44-0.05,0.63-0.27
	C8.51,11.92,8.97,12.24,9.3,12.16z"/>
<path class="st0" d="M9.23,9.1c0-0.05,0.01-0.34-0.22-0.54c-0.14-0.13-0.3-0.15-0.39-0.17C8.56,8.38,8.21,8.32,7.94,8.55
	c-0.1,0.08-0.16,0.18-0.19,0.24c0,0,0.11,0.2,0.07,0.28c0,0,0.44,0.05,0.63,0.27C8.44,9.33,8.9,9.02,9.23,9.1z"/>
<path class="st0" d="M4.96,9.08C4.95,9.03,4.92,8.73,5.15,8.51C5.31,8.36,5.51,8.34,5.6,8.33c0.05-0.01,0.39-0.03,0.65,0.2
	c0.1,0.09,0.16,0.18,0.19,0.24c0,0-0.11,0.2-0.07,0.28c0,0-0.44,0.05-0.63,0.27C5.75,9.31,5.29,9,4.96,9.08z"/>
<path class="st0" d="M7.06,12.88c0,0,0.04,0.69-0.78,0.69s-0.75-0.69-0.75-0.69s0.6,0.08,0.87-0.32C6.4,12.56,6.76,12.97,7.06,12.88
	z"/>
<path class="st0" d="M7.11,12.88c0,0-0.04,0.69,0.78,0.69s0.75-0.69,0.75-0.69s-0.6,0.08-0.87-0.32C7.77,12.56,7.4,12.97,7.11,12.88
	z"/>
<path class="st0" d="M6.41,13.56c0,0,0.62,0.89,1.4,0.03c-0.1-0.02-0.26-0.08-0.43-0.21c-0.17-0.13-0.26-0.27-0.3-0.36
	c-0.02,0.06-0.06,0.13-0.11,0.2C6.79,13.47,6.51,13.54,6.41,13.56z"/>
<path class="st0" d="M9.05,13.67"/>
<ellipse class="st0" cx="1.54" cy="1.92" rx="0.8" ry="0.69"/>
<ellipse class="st0" cx="2.1" cy="3.54" rx="0.67" ry="0.57"/>
<ellipse class="st0" cx="0.98" cy="4.51" rx="0.62" ry="0.57"/>
<ellipse class="st0" cx="2.1" cy="5.15" rx="0.62" ry="0.57"/>
<ellipse class="st0" cx="1.94" cy="6.74" rx="0.62" ry="0.57"/>
<ellipse class="st0" cx="2.72" cy="8.05" rx="0.51" ry="0.48"/>
<path class="st0" d="M2.95,2.09c0,0-0.31-0.2-0.34-0.65"/>
<path class="st0" d="M3.17,6.74c0,0-0.51-0.33-0.57-0.57"/>
<ellipse class="st0" cx="3.57" cy="3.95" rx="0.62" ry="0.57"/>
<ellipse class="st0" cx="3.4" cy="5.61" rx="0.62" ry="0.57"/>
<ellipse class="st0" cx="3.46" cy="7.13" rx="0.51" ry="0.48"/>
<ellipse class="st0" cx="3.46" cy="2.66" rx="0.8" ry="0.69"/>
<ellipse class="st1" cx="3.7" cy="2.37" rx="0.17" ry="0.17"/>
<ellipse class="st1" cx="1.93" cy="1.62" rx="0.17" ry="0.17"/>
<ellipse class="st1" cx="2.42" cy="3.43" rx="0.17" ry="0.17"/>
<ellipse class="st1" cx="2.25" cy="4.83" rx="0.17" ry="0.17"/>
<ellipse class="st1" cx="3.62" cy="6.92" rx="0.16" ry="0.16"/>
</svg>
