<?xml version="1.0" encoding="utf-8"?>
<!-- Generator: Adobe Illustrator 26.3.1, SVG Export Plug-In . SVG Version: 6.00 Build 0)  -->
<svg version="1.1" id="Ebene_2" xmlns="http://www.w3.org/2000/svg" xmlns:xlink="http://www.w3.org/1999/xlink" x="0px" y="0px"
	 viewBox="0 0 14.46 14.46" style="enable-background:new 0 0 14.46 14.46;" xml:space="preserve">
<style type="text/css">
	.st0{fill:none;stroke:#000000;stroke-width:0.25;stroke-miterlimit:10;}
</style>
<circle class="st0" cx="7.23" cy="7.23" r="6.57"/>
<path class="st0" d="M3.12,3.64c0,0,2.59,3.01,3.36,8.19c0.04,0.03,0.08,0.06,0.13,0.08c0.29,0.13,0.59,0.02,0.69-0.03
	c0.06-0.68,0.16-1.44,0.34-2.27C7.88,8.53,8.2,7.58,8.52,6.8L8.7,6.54c0.19,0.01,0.48-0.01,0.8-0.14c0.69-0.28,0.99-0.89,1.07-1.06
	c0.1-0.2,0.19-0.44,0.27-0.7c0.14-0.46,0.2-0.88,0.22-1.22c0,0-3.59-0.09-3.27,2.72c0,0,0.85-1.49,1.55-1.49
	c0,0-1.52,1.37-2.51,5.28C6.83,9.92,5.74,4.31,3.12,3.64z"/>
</svg>
