<?xml version="1.0" encoding="utf-8"?>
<!-- Generator: Adobe Illustrator 26.3.1, SVG Export Plug-In . SVG Version: 6.00 Build 0)  -->
<svg version="1.1" id="Ebene_2" xmlns="http://www.w3.org/2000/svg" xmlns:xlink="http://www.w3.org/1999/xlink" x="0px" y="0px"
	 viewBox="0 0 14.46 14.46" style="enable-background:new 0 0 14.46 14.46;" xml:space="preserve">
<style type="text/css">
	.st0{fill:none;stroke:#000000;stroke-width:0.75;stroke-linejoin:round;stroke-miterlimit:10;}
	.st1{fill:none;stroke:#000000;stroke-width:0.75;stroke-linecap:round;stroke-miterlimit:10;}
</style>
<ellipse class="st0" cx="3.74" cy="5.02" rx="1.4" ry="1.27"/>
<ellipse class="st0" cx="11.01" cy="7.3" rx="1.12" ry="1.59"/>
<rect x="2.16" y="6.45" class="st0" width="3.12" height="2.45"/>
<rect x="7.09" y="6.27" transform="matrix(-1.836970e-16 1 -1 -1.836970e-16 15.9866 -1.2873)" class="st0" width="3.09" height="2.16"/>
<line class="st1" x1="3.74" y1="2.34" x2="3.74" y2="3.75"/>
<line class="st1" x1="13.38" y1="7.35" x2="12.13" y2="7.35"/>
<path class="st0" d="M0.58,9.01C5,9,9.42,8.99,13.84,8.99c-0.05,0.42-0.19,1.08-0.65,1.53c-0.47,0.46-1.05,0.49-1.32,0.51
	c-1.22,0.05-4.68,0.08-9.34,0c-0.12,0-1.02-0.03-1.57-0.85C0.65,9.72,0.59,9.23,0.58,9.01z"/>
</svg>
