<?xml version="1.0" encoding="utf-8"?>
<!-- Generator: Adobe Illustrator 26.3.1, SVG Export Plug-In . SVG Version: 6.00 Build 0)  -->
<svg version="1.1" id="Ebene_2" xmlns="http://www.w3.org/2000/svg" xmlns:xlink="http://www.w3.org/1999/xlink" x="0px" y="0px"
	 viewBox="0 0 14.46 14.46" style="enable-background:new 0 0 14.46 14.46;" xml:space="preserve">
<style type="text/css">
	.st0{fill:none;stroke:#000000;stroke-width:0.35;stroke-miterlimit:10;}
</style>
<ellipse class="st0" cx="5.08" cy="5.67" rx="3.74" ry="3.68"/>
<line class="st0" x1="5.08" y1="1.99" x2="5.08" y2="9.17"/>
<line class="st0" x1="2.58" y1="2.93" x2="7.78" y2="8.21"/>
<line class="st0" x1="7.58" y1="2.93" x2="2.37" y2="8.21"/>
<line class="st0" x1="1.34" y1="5.53" x2="8.82" y2="5.53"/>
<ellipse class="st0" cx="5.08" cy="5.67" rx="4.42" ry="4.36"/>
<path class="st0" d="M13.09,9.18c0,1.81-1.6,3.28-3.58,3.28s-3.58-1.47-3.58-3.28h3.58h0.47H13.09z"/>
<line class="st0" x1="9.81" y1="9.18" x2="12.03" y2="11.51"/>
<line class="st0" x1="9.51" y1="9.18" x2="9.51" y2="12.46"/>
<line class="st0" x1="8.94" y1="9.18" x2="6.89" y2="11.41"/>
<path class="st0" d="M13.8,9.01c0,2.34-1.93,4.24-4.32,4.24s-4.32-1.9-4.32-4.24"/>
</svg>
